<svg id="logo-elektra" xmlns="http://www.w3.org/2000/svg" width="124" height="24.8" viewBox="0 0 124 24.8">
  <path id="logo-elektra-2" data-name="logo-elektra" d="M121.666,24.795a2.153,2.153,0,0,1-1.442-.606,3.06,3.06,0,0,1-.866-1.316,3.667,3.667,0,0,1-1.773,1.384,6.665,6.665,0,0,1-2.634.538,5.942,5.942,0,0,1-4.06-1.31,4.7,4.7,0,0,1-1.477-3.709,5.24,5.24,0,0,1,2.082-4.4,9.629,9.629,0,0,1,5.919-1.588,6.46,6.46,0,0,1,1.557.225,2.593,2.593,0,0,0-.9-2.14,4.234,4.234,0,0,0-2.673-.718,8.643,8.643,0,0,0-2.92.452l-.514.218c-.022.012-.046.021-.072.032l-.019.007h-.009l0-.006a3.268,3.268,0,0,1,.009-2.341A2.394,2.394,0,0,1,113.462,8.3a10.611,10.611,0,0,1,2.8-.319c2.523,0,3.686.651,4.745,1.7,1.13,1.126,1.7,3.275,1.7,6.387v3.465c0,2.15.433,3.518,1.286,4.068a2.133,2.133,0,0,1-1.031,1,2.649,2.649,0,0,1-1.074.2C121.823,24.8,121.748,24.8,121.666,24.795Zm-8.522-5.184c0,1.443.838,2.173,2.494,2.173,2.228,0,3.359-1.144,3.359-3.4V16.872a7.819,7.819,0,0,0-1.431-.2C114.631,16.672,113.144,17.661,113.144,19.611ZM90.949,23.426a5.479,5.479,0,0,1-1.282-3.9V11.341H85.144L87.816,8.3h1.851V5L93.4,3.611V8.3h4.386v3.045H93.4v7.085a4.231,4.231,0,0,0,.538,2.46,2.2,2.2,0,0,0,1.88.716,4.549,4.549,0,0,0,2.507-.744v3.483a11.807,11.807,0,0,1-3.7.453A4.8,4.8,0,0,1,90.949,23.426Zm-33.217-.811A8.3,8.3,0,0,1,55.6,16.565a8.5,8.5,0,0,1,2.337-6.2,8.121,8.121,0,0,1,11.19-.272,7.28,7.28,0,0,1,2.1,5.35,10.573,10.573,0,0,1-.315,2.1H59.5a4.161,4.161,0,0,0,1.316,3.009,4.724,4.724,0,0,0,3.252,1.078c.109,0,.2,0,.284.005s.137,0,.2,0A3.936,3.936,0,0,0,65.5,21.5c.136-.032.277-.074.426-.119a4.052,4.052,0,0,1,1.163-.224,2,2,0,0,1,.719.13,2.387,2.387,0,0,1,1.073,1.031,6.35,6.35,0,0,1,.509.844c-1.3,1.076-3.283,1.622-5.881,1.622A7.746,7.746,0,0,1,57.732,22.616Zm3.283-10.579A4.883,4.883,0,0,0,59.635,14.7h7.849c-.253-2.36-1.559-3.557-3.88-3.557A3.752,3.752,0,0,0,61.014,12.036Zm-26.5,10.579a8.3,8.3,0,0,1-2.127-6.051,8.5,8.5,0,0,1,2.335-6.2A7.629,7.629,0,0,1,40.33,7.99a7.576,7.576,0,0,1,5.581,2.1,7.275,7.275,0,0,1,2.107,5.35,10.574,10.574,0,0,1-.315,2.1H36.283A4.15,4.15,0,0,0,37.6,20.553a4.739,4.739,0,0,0,3.255,1.078c.109,0,.2,0,.284.005s.138,0,.2,0a3.942,3.942,0,0,0,.953-.136c.134-.031.273-.074.421-.119a4.087,4.087,0,0,1,1.165-.224,2.011,2.011,0,0,1,.721.13,2.467,2.467,0,0,1,1.07,1.031,6.632,6.632,0,0,1,.512.844c-1.3,1.076-3.283,1.622-5.881,1.622A7.759,7.759,0,0,1,34.514,22.616Zm1.9-7.911h7.853c-.258-2.36-1.564-3.557-3.882-3.557C38.268,11.148,36.932,12.345,36.418,14.7ZM19.143,24.237l-.891-.226a6.124,6.124,0,0,1-2.448.677,4.408,4.408,0,0,1-3.9-3.157,4.561,4.561,0,0,1-.335-1.691,5.446,5.446,0,0,1,.446-2.028s1.558,5.974,6.344,3.269l2.783.9v2.706Zm-9.572.45a15.111,15.111,0,0,1-4.563-2.931,6.125,6.125,0,0,1-.446-2.479,7.4,7.4,0,0,1,.891-3.5c1.559-2.931,4.007-4.735,7.9-3.607a5.74,5.74,0,0,0,1.335-3.382,3.66,3.66,0,0,0-3.116-3.719,3.018,3.018,0,0,0-1-.114,3.862,3.862,0,0,0-2.448.9L5.564,2.818a12.72,12.72,0,0,1,5.008-2.7A7.266,7.266,0,0,1,15.248,3.5c1.559,2.818,1.892,5.862-1,8.793a6.129,6.129,0,0,0,2.226,2.817,3.712,3.712,0,0,0,1.892.564A3.521,3.521,0,0,0,21.258,14.2,3.962,3.962,0,0,0,22.371,11.5c0-.225-.111-.451-.111-.677l3.673-.676v-.114a18.76,18.76,0,0,1,.222,2.593,12.74,12.74,0,0,1-.334,3.044,6.974,6.974,0,0,1-5.232,2.593c-3.116,0-5.9-1.241-6.9-5.3a3.044,3.044,0,0,0-1-.113,6.156,6.156,0,0,0-2.559.677A4.064,4.064,0,0,0,8.347,16.8a3.135,3.135,0,0,0,.222,1.466,4.318,4.318,0,0,0,2.449,2.592L9.682,24.687Zm40.29-3.628V1.828L53.594,0V19.391q0,2.992,1.762,3.57A3.056,3.056,0,0,1,52.4,24.622Q49.859,24.622,49.861,21.059Zm49.992,3.49V8.357h3.731V9.839a5.184,5.184,0,0,1,4.076-1.856,6.981,6.981,0,0,1,2.977.579,2.469,2.469,0,0,0-.647.824,4.22,4.22,0,0,0-.2,2.626,4.456,4.456,0,0,0-2.62-.837,3.659,3.659,0,0,0-2.577,1.23,4.371,4.371,0,0,0-1.007,2.918v9.227Zm-17.941-.712c-.158-.244-4.266-6.654-4.266-6.654l-1.792,1.923v5.41H72.121V1.875L75.853.134v14.4l5.329-6.214h4.5l-5.406,6.142,6.508,10.051h-3.6A1.547,1.547,0,0,1,81.912,23.837ZM0,12.964l1.335-1.579.557-.676a6.451,6.451,0,0,1,.779-2.481A3.97,3.97,0,0,1,6.233,6.2a3.044,3.044,0,0,1,1,.113,4.572,4.572,0,0,1,3.005,1.916s-5.9-1.578-6.01,4.058L2.337,14.316Zm19.255-1.578h.009l-.007,0S19.255,11.387,19.255,11.386ZM18.92,4.172l-.89-2.818L20.367,0l.668,1.915.222.9a4.6,4.6,0,0,1,1.781,1.8,3.934,3.934,0,0,1,.556,2.029,4.19,4.19,0,0,1-1.224,3.044,4.323,4.323,0,0,1-3.107,1.69C19.481,11.258,23.469,6.913,18.92,4.172Z" fill="#da291c"/>
</svg>
