<svg xmlns="http://www.w3.org/2000/svg" width="56" height="56" viewBox="0 0 56 56">
  <g id="icono_descuento" data-name="icono descuento" transform="translate(19294 16303)">
    <rect id="Rectángulo_1574" data-name="Rectángulo 1574" width="56" height="56" transform="translate(-19294 -16303)" fill="none"/>
    <g id="icono_envio" data-name="icono envio" transform="translate(-19291.201 -16293.2)">
      <path id="Trazado_4694" data-name="Trazado 4694" d="M690.052,564.394a7,7,0,0,1-7-7H678.39V531.732a4.69,4.69,0,0,1,4.662-4.662h32.676v9.324h7l7,9.338v11.662h-4.676a7,7,0,0,1-14,0h-14A7,7,0,0,1,690.052,564.394Zm0-4.662a2.3,2.3,0,0,0,2.338-2.338,2.24,2.24,0,0,0-.672-1.652,2.351,2.351,0,1,0-3.332,3.318,2.268,2.268,0,0,0,1.666.672Zm-7-7h1.876a8.152,8.152,0,0,1,2.268-1.694,6.65,6.65,0,0,1,5.712,0,8.2,8.2,0,0,1,2.282,1.694h15.862v-21h-28Zm35,7a2.3,2.3,0,0,0,2.338-2.338,2.24,2.24,0,0,0-.672-1.652,2.269,2.269,0,0,0-1.666-.672,2.3,2.3,0,0,0-2.324,2.324,2.254,2.254,0,0,0,.672,1.666A2.212,2.212,0,0,0,718.052,559.732Zm-2.324-11.662h9.912l-5.25-7h-4.662Z" transform="translate(-678.39 -527.07)" fill="#262626"/>
    </g>
  </g>
</svg>
