<svg xmlns="http://www.w3.org/2000/svg" width="56" height="55.958" viewBox="0 0 56 55.958">
  <g id="icono_descuento" data-name="icono descuento" transform="translate(19294 16303)">
    <rect id="Rectángulo_1574" data-name="Rectángulo 1574" width="56" height="55.958" transform="translate(-19294 -16303)" fill="none"/>
    <g id="garantia" transform="translate(-19780.332 -16338.018)">
      <path id="Trazado_4714" data-name="Trazado 4714" d="M511.55,64.633l-3.208-3.267a2.324,2.324,0,0,0-3.325,0,2.369,2.369,0,0,0-.728,1.661,2.168,2.168,0,0,0,.669,1.664l4.959,4.958a2.255,2.255,0,0,0,3.266,0l9.917-9.917a2.351,2.351,0,1,0-3.325-3.325ZM514,86.158h-.583a1.154,1.154,0,0,1-.525-.117,23.822,23.822,0,0,1-12.6-9.48A26.711,26.711,0,0,1,495.333,60.9V49.875a4.364,4.364,0,0,1,.847-2.625,4.808,4.808,0,0,1,2.187-1.692l14-5.25a4.717,4.717,0,0,1,3.266,0l14,5.25a4.824,4.824,0,0,1,2.189,1.692,4.368,4.368,0,0,1,.845,2.625V60.9a26.712,26.712,0,0,1-4.959,15.661,23.822,23.822,0,0,1-12.6,9.48A3.462,3.462,0,0,1,514,86.158Zm0-4.725a18.988,18.988,0,0,0,10.033-7.7A22.158,22.158,0,0,0,528,60.9V49.875l-14-5.25-14,5.25V60.9a22.158,22.158,0,0,0,3.967,12.833A18.984,18.984,0,0,0,514,81.433Z" fill="#1c1b1f"/>
    </g>
  </g>
</svg>
