<svg xmlns="http://www.w3.org/2000/svg" width="40.7" height="40" viewBox="0 0 40.7 40">
  <g id="icono_descuento" data-name="icono descuento" transform="translate(19294.349 16303)">
    <rect id="Rectángulo_1574" data-name="Rectángulo 1574" width="40" height="40" transform="translate(-19294 -16303)" fill="none"/>
    <path id="Visibility" d="M97.155,303.894a7.818,7.818,0,1,0-5.566-2.288A7.563,7.563,0,0,0,97.155,303.894Zm0-2.573a5.262,5.262,0,1,1,3.737-1.544A5.1,5.1,0,0,1,97.155,301.32Zm0,8.3a21.4,21.4,0,0,1-11.634-3.328,21.986,21.986,0,0,1-8.1-8.97,2.234,2.234,0,0,1-.2-.6,3.549,3.549,0,0,1-.065-.684,3.463,3.463,0,0,1,.065-.679,2.239,2.239,0,0,1,.2-.595,22,22,0,0,1,8.092-8.97,21.986,21.986,0,0,1,23.262,0,22.053,22.053,0,0,1,8.108,8.97,2.62,2.62,0,0,1,.2.6,3.315,3.315,0,0,1,.07.684,3.235,3.235,0,0,1-.07.679,2.634,2.634,0,0,1-.2.595,22.066,22.066,0,0,1-8.1,8.97A21.372,21.372,0,0,1,97.156,309.617ZM97.15,296.04Zm0,10.8a19.178,19.178,0,0,0,17.271-10.8,19.2,19.2,0,0,0-34.542,0,19.178,19.178,0,0,0,17.271,10.8Z" transform="translate(-19371.154 -16579.039)" stroke="#000" stroke-width="0.7"/>
  </g>
</svg>
