<svg xmlns="http://www.w3.org/2000/svg" width="56" height="56" viewBox="0 0 56 56">
  <g id="icono_tienda" data-name="icono tienda" transform="translate(19294 16303)">
    <rect id="Rectángulo_1574" data-name="Rectángulo 1574" width="56" height="56" transform="translate(-19294 -16303)" fill="none"/>
    <g id="icono_tienda-2" data-name="icono tienda" transform="translate(-19289.801 -16296)">
      <path id="Trazado_4704" data-name="Trazado 4704" d="M724.459,898.5v18.746a4.591,4.591,0,0,1-1.4,3.332,4.494,4.494,0,0,1-3.3,1.4h-32.62a4.494,4.494,0,0,1-3.3-1.4,4.605,4.605,0,0,1-1.4-3.332V898.5a8.15,8.15,0,0,1-2.072-3.192,6.553,6.553,0,0,1,0-4.2l2.45-8.008a5.237,5.237,0,0,1,1.666-2.534,4.2,4.2,0,0,1,2.8-1.008h32.438a4.115,4.115,0,0,1,2.73.966,5.518,5.518,0,0,1,1.694,2.576l2.45,8.008a6.2,6.2,0,0,1,0,4.2,9.224,9.224,0,0,1-2.128,3.192ZM708.6,896.024a2.8,2.8,0,0,0,2.394-1.092,3.263,3.263,0,0,0,.644-2.45l-1.288-8.246H705.8v8.722a3.136,3.136,0,0,0,.812,2.156,2.59,2.59,0,0,0,1.988.91Zm-10.5,0a2.8,2.8,0,0,0,2.184-.91,3.052,3.052,0,0,0,.854-2.156v-8.722h-4.55l-1.288,8.246a2.983,2.983,0,0,0,.616,2.478A2.646,2.646,0,0,0,698.1,896.024Zm-10.388,0a2.506,2.506,0,0,0,1.834-.77,3.235,3.235,0,0,0,.966-1.946l1.288-9.072h-4.55l-2.338,7.9a3.346,3.346,0,0,0,.378,2.534A2.534,2.534,0,0,0,687.709,896.024Zm31.5,0a2.576,2.576,0,0,0,2.45-1.4,3,3,0,0,0,.35-2.534l-2.45-7.9h-4.424l1.274,9.072a3.4,3.4,0,0,0,.966,1.946,2.534,2.534,0,0,0,1.82.812Zm-32.074,21.224H719.8V900.616a1.4,1.4,0,0,1-.378.126h-.224a6.846,6.846,0,0,1-2.8-.532,7.7,7.7,0,0,1-2.352-1.708,7.8,7.8,0,0,1-2.394,1.652,7,7,0,0,1-2.8.588,7.423,7.423,0,0,1-2.954-.588,7.757,7.757,0,0,1-2.422-1.652,7.222,7.222,0,0,1-2.3,1.652,6.871,6.871,0,0,1-2.8.588,7.673,7.673,0,0,1-3.066-.588,7.757,7.757,0,0,1-2.422-1.652,7.617,7.617,0,0,1-2.422,1.736,6.9,6.9,0,0,1-2.716.5H687.5a.56.56,0,0,1-.322-.126Z" transform="translate(-680.013 -879.559)" fill="#1c1b1f"/>
    </g>
  </g>
</svg>
